<svg xmlns="http://www.w3.org/2000/svg" style="display:none">
  <!-- Wave Hand -->
  <symbol id="icon-wave" viewBox="0 0 40 40" fill="none" stroke="currentColor" stroke-width="2" stroke-linecap="round" stroke-linejoin="round">
    <path d="M26 31c-4-2-7-5-7-8 0-2 1-4 3-4s3 2 3 3v-5c0-1 1-2 2-2s2 1 2 2v14"/>
    <path d="M22 27V10c0-1 1-2 2-2s2 1 2 2v17c0 2-1 4-2 5"/>
    <path d="M18 28V9c0-1 1-2 2-2s2 1 2 2v19"/>
    <path d="M14 28c-1-2-1-4-1-5"/>
    <path d="M16 18V7c0-1 1-1 2-1s2 0 2 1v11"/>
    <path d="M12 26c-2-1-3-3-3-4 0-2 1-3 2-3s2 1 2 2"/>
    <path d="M24 32c3 2 7 2 9 0"/>
    <path d="M10 24l-2 1"/>
    <circle cx="20" cy="21" r="11" fill="currentColor" opacity="0.06" stroke="none"/>
  </symbol>

  <!-- ILY Handshape -->
  <symbol id="icon-ily" viewBox="0 0 40 40" fill="none" stroke="currentColor" stroke-width="2" stroke-linecap="round" stroke-linejoin="round">
    <path d="M27 17a2 2 0 0 1 2-2 2 2 0 0 1 2 2v11a2 2 0 0 1-2 2 2 2 0 0 1-2-2V17z"/>
    <path d="M27 17a2 2 0 0 1 2-2 2 2 0 0 1 2 2"/>
    <path d="M13 16a2 2 0 0 0-2-2 2 2 0 0 0-2 2v9a2 2 0 0 0 2 2 2 2 0 0 0 2-2V16z"/>
    <path d="M20 34V8a2 2 0 0 1 2-2 2 2 0 0 1 2 2v26"/>
    <path d="M20 10v24"/>
    <path d="M16 17l2-3 4 2 2-3"/>
    <path d="M18 15l2 3 2-3"/>
    <path d="M24 19l3 1"/>
    <circle cx="20" cy="21" r="11" fill="currentColor" opacity="0.06" stroke="none"/>
  </symbol>

  <!-- Peace Sign -->
  <symbol id="icon-peace" viewBox="0 0 40 40" fill="none" stroke="currentColor" stroke-width="2" stroke-linecap="round" stroke-linejoin="round">
    <path d="M20 36V4"/>
    <path d="M14 8a2 2 0 0 0-2 2v10a2 2 0 0 0 2 2"/>
    <path d="M26 8a2 2 0 0 1 2 2v10a2 2 0 0 1-2 2"/>
    <path d="M14 22h1"/>
    <path d="M25 22h1"/>
    <path d="M18 17l2-4 2 4"/>
    <path d="M12 7v12"/>
    <path d="M28 7v12"/>
    <path d="M22 33c-4 1-8-1-10-4"/>
    <circle cx="20" cy="21" r="12" fill="currentColor" opacity="0.06" stroke="none"/>
  </symbol>

  <!-- Pointing -->
  <symbol id="icon-point" viewBox="0 0 40 40" fill="none" stroke="currentColor" stroke-width="2" stroke-linecap="round" stroke-linejoin="round">
    <path d="M20 34V14a2 2 0 0 1 2-2 2 2 0 0 1 2 2v8"/>
    <path d="M24 22c3-1 5-2 5-4 0-2-1-3-3-3"/>
    <path d="M15 23c-2 0-3-1-3-3v-5c0-2 1-3 2-3s2 1 2 3"/>
    <path d="M14 16c-2 1-3 3-3 5 0 3 3 6 6 7"/>
    <path d="M24 16c0-2-1-4-2-5"/>
    <path d="M20 18v8"/>
    <circle cx="20" cy="21" r="10" fill="currentColor" opacity="0.06" stroke="none"/>
  </symbol>

  <!-- Open Hand -->
  <symbol id="icon-open" viewBox="0 0 40 40" fill="none" stroke="currentColor" stroke-width="2" stroke-linecap="round" stroke-linejoin="round">
    <path d="M9 21V8a2 2 0 0 1 2-2 2 2 0 0 1 2 2v15"/>
    <path d="M13 23V6a2 2 0 0 1 2-2 2 2 0 0 1 2 2v19"/>
    <path d="M17 25V5a2 2 0 0 1 2-2 2 2 0 0 1 2 2v22"/>
    <path d="M21 25V7a2 2 0 0 1 2-2 2 2 0 0 1 2 2v20"/>
    <path d="M25 23V9a2 2 0 0 1 2-2 2 2 0 0 1 2 2v15"/>
    <path d="M9 25c0 3 2 6 5 8 3 2 8 2 11 0s5-5 5-8"/>
    <path d="M15 8v15"/>
    <path d="M23 9v18"/>
    <circle cx="20" cy="21" r="12" fill="currentColor" opacity="0.06" stroke="none"/>
  </symbol>

  <!-- Fist -->
  <symbol id="icon-fist" viewBox="0 0 40 40" fill="none" stroke="currentColor" stroke-width="2" stroke-linecap="round" stroke-linejoin="round">
    <circle cx="20" cy="17" r="11"/>
    <path d="M12 17c0-3 1-5 3-6 2-1 5-1 7 0 2 1 3 3 3 6"/>
    <path d="M15 12c0-2 1-4 2-5 1-1 3-1 4 0 1 1 2 3 2 5"/>
    <path d="M16 22c2 2 6 2 8 0"/>
    <path d="M14 19h12"/>
    <path d="M16 29v4a2 2 0 0 0 2 2h4a2 2 0 0 0 2-2v-4"/>
    <path d="M24 35h2"/>
    <path d="M14 35h-2"/>
    <circle cx="20" cy="18" r="13" fill="currentColor" opacity="0.06" stroke="none"/>
  </symbol>

  <!-- Thumbs Up -->
  <symbol id="icon-thumb" viewBox="0 0 40 40" fill="none" stroke="currentColor" stroke-width="2" stroke-linecap="round" stroke-linejoin="round">
    <path d="M18 26V8a2 2 0 0 1 2-2 2 2 0 0 1 2 2v18"/>
    <path d="M22 24c3-1 5-1 5-3 0-2-1-4-3-4"/>
    <path d="M14 22c-2 0-3-1-3-3v-3c0-2 1-3 2-3s2 1 2 3"/>
    <path d="M12 17c-2 2-3 4-3 6 0 4 3 8 7 9"/>
    <path d="M18 28v3a2 2 0 0 0 2 2h4a2 2 0 0 0 2-2v-2"/>
    <circle cx="20" cy="21" r="11" fill="currentColor" opacity="0.06" stroke="none"/>
  </symbol>

  <!-- Two Hands Talking -->
  <symbol id="icon-hands-talk" viewBox="0 0 40 40" fill="none" stroke="currentColor" stroke-width="2" stroke-linecap="round" stroke-linejoin="round">
    <path d="M8 24V12a2 2 0 0 1 2-2 2 2 0 0 1 2 2v14"/>
    <path d="M12 26V9a2 2 0 0 1 2-2 2 2 0 0 1 2 2v17"/>
    <path d="M30 24V12a2 2 0 0 0-2-2 2 2 0 0 0-2 2v14"/>
    <path d="M26 26V9a2 2 0 0 0-2-2 2 2 0 0 0-2 2v17"/>
    <path d="M8 28c0 4 4 7 8 7h8c4 0 8-3 8-7"/>
    <path d="M20 20c-2 0-4 2-4 4h8c0-2-2-4-4-4z"/>
    <path d="M16 11l2-2"/>
    <path d="M24 11l-2-2"/>
    <circle cx="20" cy="21" r="14" fill="currentColor" opacity="0.06" stroke="none"/>
  </symbol>

  <!-- Hand Heart -->
  <symbol id="icon-hand-heart" viewBox="0 0 40 40" fill="none" stroke="currentColor" stroke-width="2" stroke-linecap="round" stroke-linejoin="round">
    <path d="M11 13c0-4 3-6 5-6s5 2 5 6c0 4-5 10-5 10s-5-6-5-10z"/>
    <path d="M21 13c0-4 3-6 5-6s5 2 5 6c0 4-5 10-5 10s-5-6-5-10z"/>
    <path d="M9 26c0 4 4 8 11 8s11-4 11-8"/>
    <path d="M13 28c3 2 8 2 11 0"/>
    <path d="M23 12c2-1 4-1 5 1"/>
    <circle cx="20" cy="22" r="12" fill="currentColor" opacity="0.06" stroke="none"/>
  </symbol>

  <!-- Dictionary -->
  <symbol id="icon-dictionary" viewBox="0 0 40 40" fill="none" stroke="currentColor" stroke-width="2" stroke-linecap="round" stroke-linejoin="round">
    <path d="M8 32V8a2 2 0 0 1 2-2 2 2 0 0 1 2 2v24"/>
    <path d="M12 32V6a2 2 0 0 1 2-2 2 2 0 0 1 2 2v26"/>
    <path d="M16 32V9a2 2 0 0 1 2-2 2 2 0 0 1 2 2v21"/>
    <path d="M6 28c0 3 3 5 7 5h1"/>
    <path d="M34 28c0 3-3 5-7 5h-1"/>
    <path d="M30 12l2-1v20c0 2-1 4-3 5"/>
    <path d="M24 11l2-1"/>
    <path d="M28 12l2-1"/>
    <path d="M18 14l2 1"/>
    <circle cx="20" cy="20" r="13" fill="currentColor" opacity="0.06" stroke="none"/>
  </symbol>

  <!-- Hand Chat Speech -->
  <symbol id="icon-hand-chat" viewBox="0 0 40 40" fill="none" stroke="currentColor" stroke-width="2" stroke-linecap="round" stroke-linejoin="round">
    <rect x="6" y="10" width="28" height="18" rx="4"/>
    <path d="M14 28v6l8-6"/>
    <circle cx="13" cy="19" r="1.5" fill="currentColor"/>
    <circle cx="20" cy="19" r="1.5" fill="currentColor"/>
    <circle cx="27" cy="19" r="1.5" fill="currentColor"/>
    <path d="M30 10c0-2-2-4-5-4"/>
    <circle cx="20" cy="21" r="14" fill="currentColor" opacity="0.06" stroke="none"/>
  </symbol>

  <!-- Practice Hands -->
  <symbol id="icon-hand-practice" viewBox="0 0 40 40" fill="none" stroke="currentColor" stroke-width="2" stroke-linecap="round" stroke-linejoin="round">
    <path d="M6 22V8a2 2 0 0 1 2-2 2 2 0 0 1 2 2v14"/>
    <path d="M10 24V7a2 2 0 0 1 2-2 2 2 0 0 1 2 2v17"/>
    <path d="M34 22V8a2 2 0 0 0-2-2 2 2 0 0 0-2 2v14"/>
    <path d="M30 24V7a2 2 0 0 0-2-2 2 2 0 0 0-2 2v17"/>
    <path d="M6 26c0 3 3 5 7 5h14c4 0 7-2 7-5"/>
    <path d="M20 18l-3 4 3 4 3-4-3-4z" fill="currentColor" opacity="0.15" stroke="none"/>
    <circle cx="20" cy="21" r="14" fill="currentColor" opacity="0.06" stroke="none"/>
  </symbol>

  <!-- Streak Fire -->
  <symbol id="icon-hand-streak" viewBox="0 0 40 40" fill="none" stroke="currentColor" stroke-width="2" stroke-linecap="round" stroke-linejoin="round">
    <path d="M20 38c-6 0-11-4-11-10 0-4 2-7 5-9 2-2 4-4 6-7 2 3 4 5 6 7 3 2 5 5 5 9 0 6-5 10-11 10z"/>
    <path d="M20 30c3 0 5-2 5-5 0-2-1-4-3-5"/>
    <path d="M17 35c-3-1-5-4-5-7"/>
    <path d="M12 21c0-2 1-3 2-3s2 1 2 3"/>
    <path d="M24 21c0-2 1-3 2-3s2 1 2 3"/>
    <path d="M16 29c-1-1-2-3-2-5"/>
    <circle cx="20" cy="22" r="13" fill="currentColor" opacity="0.06" stroke="none"/>
  </symbol>

  <!-- Trophy -->
  <symbol id="icon-hand-trophy" viewBox="0 0 40 40" fill="none" stroke="currentColor" stroke-width="2" stroke-linecap="round" stroke-linejoin="round">
    <path d="M13 10h14v7c0 4-3 7-7 7s-7-3-7-7v-7z"/>
    <path d="M13 10c-2 0-4-2-4-4"/>
    <path d="M27 10c2 0 4-2 4-4"/>
    <path d="M16 24c0 2 2 3 4 3s4-1 4-3"/>
    <path d="M18 27v4"/>
    <path d="M16 31h8"/>
    <path d="M14 35c0-2 2-3 6-3s6 1 6 3"/>
    <path d="M24 10V6h-8v4"/>
    <circle cx="20" cy="21" r="13" fill="currentColor" opacity="0.06" stroke="none"/>
  </symbol>

  <!-- User Profile -->
  <symbol id="icon-hand-user" viewBox="0 0 40 40" fill="none" stroke="currentColor" stroke-width="2" stroke-linecap="round" stroke-linejoin="round">
    <circle cx="20" cy="13" r="7"/>
    <path d="M10 33c0-5 5-9 10-9s10 4 10 9"/>
    <path d="M16 33V8a2 2 0 0 1 2-2 2 2 0 0 1 2 2v25"/>
    <path d="M15 10c2-1 4-1 6 0"/>
    <path d="M14 33c3 1 9 1 12 0"/>
    <circle cx="20" cy="21" r="14" fill="currentColor" opacity="0.06" stroke="none"/>
  </symbol>

  <!-- Game / Play -->
  <symbol id="icon-hand-game" viewBox="0 0 40 40" fill="none" stroke="currentColor" stroke-width="2" stroke-linecap="round" stroke-linejoin="round">
    <rect x="5" y="14" width="30" height="15" rx="4"/>
    <circle cx="13" cy="21.5" r="2" fill="currentColor"/>
    <path d="M11 19v5"/>
    <circle cx="27" cy="19.5" r="2" fill="currentColor"/>
    <circle cx="31" cy="24.5" r="2" fill="currentColor"/>
    <path d="M24 34v-4"/>
    <path d="M22 14V8"/>
    <path d="M20 8h-4"/>
    <circle cx="20" cy="22" r="13" fill="currentColor" opacity="0.06" stroke="none"/>
  </symbol>

  <!-- Settings / Gear -->
  <symbol id="icon-hand-settings" viewBox="0 0 40 40" fill="none" stroke="currentColor" stroke-width="2" stroke-linecap="round" stroke-linejoin="round">
    <circle cx="20" cy="20" r="5"/>
    <path d="M20 10v-3"/>
    <path d="M20 33v3"/>
    <path d="M30 20h3"/>
    <path d="M7 20h3"/>
    <path d="M27.07 12.93l2.12-2.12"/>
    <path d="M10.81 29.19l2.12-2.12"/>
    <path d="M27.07 27.07l2.12 2.12"/>
    <path d="M10.81 10.81l2.12 2.12"/>
    <circle cx="20" cy="20" r="15" fill="currentColor" opacity="0.06" stroke="none"/>
  </symbol>

  <!-- Home -->
  <symbol id="icon-hand-home" viewBox="0 0 40 40" fill="none" stroke="currentColor" stroke-width="2" stroke-linecap="round" stroke-linejoin="round">
    <path d="M6 18l14-12 14 12"/>
    <path d="M10 16v14a2 2 0 0 0 2 2h16a2 2 0 0 0 2-2V16"/>
    <path d="M18 32v-8h4v8"/>
    <path d="M12 20l8-7 8 7"/>
    <circle cx="20" cy="21" r="15" fill="currentColor" opacity="0.06" stroke="none"/>
  </symbol>

  <!-- Bell -->
  <symbol id="icon-hand-bell" viewBox="0 0 40 40" fill="none" stroke="currentColor" stroke-width="2" stroke-linecap="round" stroke-linejoin="round">
    <path d="M13 16a7 7 0 0 1 14 0c0 7 2 9 2 9H11s2-2 2-9"/>
    <path d="M17 30a2 2 0 0 0 4 0"/>
    <path d="M9 23h22"/>
    <path d="M20 9V7"/>
    <circle cx="20" cy="21" r="14" fill="currentColor" opacity="0.06" stroke="none"/>
  </symbol>

  <!-- Camera -->
  <symbol id="icon-hand-camera" viewBox="0 0 40 40" fill="none" stroke="currentColor" stroke-width="2" stroke-linecap="round" stroke-linejoin="round">
    <rect x="5" y="11" width="30" height="20" rx="4"/>
    <circle cx="20" cy="21" r="6"/>
    <circle cx="20" cy="21" r="2.5" fill="currentColor" opacity="0.3"/>
    <path d="M26 11l-3-5H17l-3 5"/>
    <circle cx="20" cy="21" r="14" fill="currentColor" opacity="0.06" stroke="none"/>
  </symbol>

  <!-- ABC Fingerspelling -->
  <symbol id="icon-abc" viewBox="0 0 40 40" fill="none" stroke="currentColor" stroke-width="2" stroke-linecap="round" stroke-linejoin="round">
    <rect x="9" y="7" width="8" height="9" rx="1"/>
    <rect x="23" y="7" width="8" height="9" rx="1"/>
    <rect x="9" y="22" width="8" height="9" rx="1"/>
    <rect x="23" y="22" width="8" height="9" rx="1"/>
    <path d="M13 16v6"/>
    <path d="M27 16v6"/>
    <path d="M17 11.5h6"/>
    <path d="M17 26.5h6"/>
    <circle cx="20" cy="20" r="16" fill="currentColor" opacity="0.06" stroke="none"/>
  </symbol>

  <!-- Numbers Grid -->
  <symbol id="icon-numbers" viewBox="0 0 40 40" fill="none" stroke="currentColor" stroke-width="2" stroke-linecap="round" stroke-linejoin="round">
    <circle cx="11" cy="10" r="3" fill="currentColor"/>
    <circle cx="20" cy="6" r="3" fill="currentColor"/>
    <circle cx="29" cy="10" r="3" fill="currentColor"/>
    <circle cx="11" cy="22" r="3" fill="currentColor"/>
    <circle cx="20" cy="22" r="3" fill="currentColor"/>
    <circle cx="29" cy="22" r="3" fill="currentColor"/>
    <circle cx="11" cy="34" r="3" fill="currentColor"/>
    <circle cx="20" cy="34" r="3" fill="currentColor"/>
    <circle cx="29" cy="34" r="3" fill="currentColor"/>
    <circle cx="20" cy="20" r="17" fill="currentColor" opacity="0.06" stroke="none"/>
  </symbol>

  <!-- Repeat / Review -->
  <symbol id="icon-hand-repeat" viewBox="0 0 40 40" fill="none" stroke="currentColor" stroke-width="2" stroke-linecap="round" stroke-linejoin="round">
    <path d="M11 12l-5 5 5 5"/>
    <path d="M6 17h16c5 0 7 3 7 7"/>
    <path d="M29 28l5-5-5-5"/>
    <path d="M34 23H18c-5 0-7-3-7-7"/>
    <circle cx="20" cy="22" r="15" fill="currentColor" opacity="0.06" stroke="none"/>
  </symbol>

  <!-- Check -->
  <symbol id="icon-check" viewBox="0 0 40 40" fill="none" stroke="currentColor" stroke-width="3.5" stroke-linecap="round" stroke-linejoin="round">
    <circle cx="20" cy="20" r="17" fill="currentColor" opacity="0.08" stroke="none"/>
    <path d="M8 20l10 10 16-16"/>
  </symbol>

  <!-- Close X -->
  <symbol id="icon-close" viewBox="0 0 40 40" fill="none" stroke="currentColor" stroke-width="3.5" stroke-linecap="round" stroke-linejoin="round">
    <circle cx="20" cy="20" r="17" fill="currentColor" opacity="0.08" stroke="none"/>
    <path d="M12 12l16 16"/>
    <path d="M28 12L12 28"/>
  </symbol>

  <!-- Arrow -->
  <symbol id="icon-arrow" viewBox="0 0 40 40" fill="none" stroke="currentColor" stroke-width="2.5" stroke-linecap="round" stroke-linejoin="round">
    <path d="M6 20h28"/>
    <path d="M22 10l10 10-10 10"/>
    <circle cx="20" cy="20" r="17" fill="currentColor" opacity="0.06" stroke="none"/>
  </symbol>

  <!-- Volume -->
  <symbol id="icon-hand-volume" viewBox="0 0 40 40" fill="none" stroke="currentColor" stroke-width="2" stroke-linecap="round" stroke-linejoin="round">
    <path d="M10 16H6v8h4l6 6V10l-6 6z"/>
    <path d="M24 12c3 3 3 9 0 12" opacity="0.6"/>
    <path d="M29 8c5 5 5 17 0 22" opacity="0.35"/>
    <circle cx="19" cy="21" r="13" fill="currentColor" opacity="0.06" stroke="none"/>
  </symbol>

  <!-- Quiz -->
  <symbol id="icon-quiz" viewBox="0 0 40 40" fill="none" stroke="currentColor" stroke-width="2" stroke-linecap="round" stroke-linejoin="round">
    <circle cx="20" cy="20" r="16"/>
    <path d="M14 14c0-3 3-5 6-5s6 2 6 5c0 3-3 4-6 5"/>
    <path d="M20 24v3"/>
    <circle cx="20" cy="30" r="1.5" fill="currentColor"/>
    <circle cx="20" cy="20" r="17" fill="currentColor" opacity="0.06" stroke="none"/>
  </symbol>

  <!-- Leaderboard / Podium -->
  <symbol id="icon-leaderboard" viewBox="0 0 40 40" fill="none" stroke="currentColor" stroke-width="2" stroke-linecap="round" stroke-linejoin="round">
    <rect x="4" y="21" width="10" height="15" rx="2"/>
    <rect x="15" y="11" width="10" height="25" rx="2"/>
    <rect x="26" y="16" width="10" height="20" rx="2"/>
    <path d="M20 6l-3 5h6l-3-5z"/>
    <path d="M9 36h4"/>
    <path d="M18 36h4"/>
    <path d="M29 36h4"/>
    <circle cx="20" cy="18" r="16" fill="currentColor" opacity="0.06" stroke="none"/>
  </symbol>

  <!-- Party / Celebration -->
  <symbol id="icon-party" viewBox="0 0 40 40" fill="none" stroke="currentColor" stroke-width="2" stroke-linecap="round" stroke-linejoin="round">
    <path d="M10 34c0-5 5-9 10-9s10 4 10 9"/>
    <circle cx="13" cy="12" r="3" fill="currentColor"/>
    <circle cx="27" cy="10" r="3" fill="currentColor"/>
    <circle cx="20" cy="5" r="3" fill="currentColor"/>
    <path d="M13 20l4-5"/>
    <path d="M27 20l-4-5"/>
    <path d="M8 26h2"/>
    <path d="M30 26h2"/>
    <path d="M14 30h12"/>
    <path d="M7 13l3-1"/>
    <circle cx="20" cy="23" r="13" fill="currentColor" opacity="0.06" stroke="none"/>
  </symbol>

  <!-- Number (finger counting) -->
  <symbol id="icon-number" viewBox="0 0 40 40" fill="none" stroke="currentColor" stroke-width="2" stroke-linecap="round" stroke-linejoin="round">
    <path d="M20 36V14a2 2 0 0 1 2-2 2 2 0 0 1 2 2v8"/>
    <path d="M24 22c3-1 5-2 5-4 0-2-1-3-3-3"/>
    <path d="M14 23c-2 0-3-1-3-3v-4c0-2 1-3 2-3s2 1 2 3"/>
    <path d="M16 23c2 0 3-1 3-3v-2c0-2 1-3 2-3s2 1 2 3v8"/>
    <path d="M10 26c0 3 2 5 5 7"/>
    <path d="M20 16v6"/>
    <circle cx="20" cy="22" r="12" fill="currentColor" opacity="0.06" stroke="none"/>
  </symbol>

  <!-- Letter A (fist with thumb) -->
  <symbol id="icon-letter" viewBox="0 0 40 40" fill="none" stroke="currentColor" stroke-width="2" stroke-linecap="round" stroke-linejoin="round">
    <circle cx="20" cy="17" r="11"/>
    <path d="M12 17c0-3 1-5 3-6 2-1 5-1 7 0 2 1 3 3 3 6"/>
    <path d="M15 12c0-2 1-4 2-5"/>
    <path d="M16 22c2 2 6 2 8 0"/>
    <path d="M14 19h12"/>
    <path d="M16 29v4a2 2 0 0 0 2 2h4a2 2 0 0 0 2-2v-4"/>
    <path d="M22 8c2 1 3 3 3 5"/>
    <circle cx="20" cy="19" r="13" fill="currentColor" opacity="0.06" stroke="none"/>
  </symbol>

  <!-- Thank You -->
  <symbol id="icon-thankyou" viewBox="0 0 40 40" fill="none" stroke="currentColor" stroke-width="2" stroke-linecap="round" stroke-linejoin="round">
    <path d="M14 30V16a2 2 0 0 1 2-2 2 2 0 0 1 2 2v14"/>
    <path d="M18 30V14a2 2 0 0 1 2-2 2 2 0 0 1 2 2v14"/>
    <path d="M22 30V17a2 2 0 0 1 2-2 2 2 0 0 1 2 2v12"/>
    <path d="M10 30c0 3 2 6 5 8"/>
    <path d="M8 32c-2-2-3-5-3-8"/>
    <path d="M14 20l-2-1"/>
    <path d="M26 19l2-1"/>
    <circle cx="20" cy="22" r="12" fill="currentColor" opacity="0.06" stroke="none"/>
  </symbol>

  <!-- Family -->
  <symbol id="icon-family" viewBox="0 0 40 40" fill="none" stroke="currentColor" stroke-width="2" stroke-linecap="round" stroke-linejoin="round">
    <circle cx="13" cy="11" r="4.5"/>
    <circle cx="27" cy="11" r="4.5"/>
    <circle cx="20" cy="30" r="7"/>
    <path d="M7 33c0-5 4-9 6-10"/>
    <path d="M33 33c0-5-4-9-6-10"/>
    <path d="M20 24c-2 0-3 2-3 4"/>
    <path d="M13 16c-2 2-4 5-4 8"/>
    <path d="M27 16c2 2 4 5 4 8"/>
    <circle cx="20" cy="21" r="15" fill="currentColor" opacity="0.06" stroke="none"/>
  </symbol>

  <!-- Food / Eat -->
  <symbol id="icon-food" viewBox="0 0 40 40" fill="none" stroke="currentColor" stroke-width="2" stroke-linecap="round" stroke-linejoin="round">
    <path d="M13 25V12a2 2 0 0 1 2-2 2 2 0 0 1 2 2v15"/>
    <path d="M17 25V10a2 2 0 0 1 2-2 2 2 0 0 1 2 2v15"/>
    <path d="M21 25V13a2 2 0 0 1 2-2 2 2 0 0 1 2 2v12"/>
    <path d="M9 29c0 3 3 6 7 6h8c4 0 7-3 7-6"/>
    <path d="M15 11c-2-2-3-4-3-6"/>
    <path d="M13 19l-2 1"/>
    <path d="M27 19l2 1"/>
    <circle cx="20" cy="21" r="13" fill="currentColor" opacity="0.06" stroke="none"/>
  </symbol>

  <!-- Like / Thumbs Up -->
  <symbol id="icon-like" viewBox="0 0 40 40" fill="none" stroke="currentColor" stroke-width="2" stroke-linecap="round" stroke-linejoin="round">
    <path d="M18 24V8a2 2 0 0 1 2-2 2 2 0 0 1 2 2v16"/>
    <path d="M22 22c3-1 5-1 5-3 0-2-1-4-3-4"/>
    <path d="M14 22c-2 0-3-1-3-3v-3c0-2 1-3 2-3s2 1 2 3"/>
    <path d="M12 17c-2 2-3 4-3 6 0 4 3 8 7 9"/>
    <path d="M18 28c0 2 2 4 5 4"/>
    <circle cx="20" cy="21" r="12" fill="currentColor" opacity="0.06" stroke="none"/>
  </symbol>

  <!-- OK Handshape -->
  <symbol id="icon-ok" viewBox="0 0 40 40" fill="none" stroke="currentColor" stroke-width="2" stroke-linecap="round" stroke-linejoin="round">
    <circle cx="20" cy="20" r="16"/>
    <circle cx="17" cy="17" r="5" fill="currentColor" opacity="0.12"/>
    <circle cx="17" cy="17" r="3" fill="currentColor"/>
    <path d="M23 28c-3 3-7 2-9 0"/>
    <path d="M29 20l2 6-6 2"/>
    <path d="M22 18l1-1"/>
    <circle cx="20" cy="20" r="17" fill="currentColor" opacity="0.06" stroke="none"/>
  </symbol>

  <!-- Hand Book -->
  <symbol id="icon-hand-book" viewBox="0 0 40 40" fill="none" stroke="currentColor" stroke-width="2" stroke-linecap="round" stroke-linejoin="round">
    <path d="M14 30V8a2 2 0 0 1 2-2 2 2 0 0 1 2 2v22"/>
    <path d="M18 30V6a2 2 0 0 1 2-2 2 2 0 0 1 2 2v24"/>
    <path d="M22 30V9a2 2 0 0 1 2-2 2 2 0 0 1 2 2v16"/>
    <path d="M10 24c0 3 2 6 5 8 3 2 7 2 10 0"/>
    <path d="M28 9l2-1v20c0 2-1 3-3 4"/>
    <path d="M8 26l-2-1v-6c0-1 1-2 2-2s2 1 2 2v7"/>
    <path d="M14 14l-2-1"/>
    <path d="M18 12l-2-1"/>
    <circle cx="20" cy="21" r="13" fill="currentColor" opacity="0.06" stroke="none"/>
  </symbol>

  <!-- Hand Star -->
  <symbol id="icon-hand-star" viewBox="0 0 40 40" fill="none" stroke="currentColor" stroke-width="2" stroke-linecap="round" stroke-linejoin="round">
    <path d="M16 32V16a2 2 0 0 1 2-2 2 2 0 0 1 2 2v16"/>
    <path d="M20 32V14a2 2 0 0 1 2-2 2 2 0 0 1 2 2v18"/>
    <path d="M24 32V17a2 2 0 0 1 2-2 2 2 0 0 1 2 2v12"/>
    <path d="M12 28v-6c0-2 1-3 2-3s2 1 2 3v4"/>
    <path d="M10 26c-2 0-3-1-3-3v-2c0-2 1-3 2-3s2 1 2 3"/>
    <path d="M16 22l5-8 5 8" stroke="currentColor"/>
    <path d="M18 24l2-3 2 3"/>
    <circle cx="20" cy="22" r="12" fill="currentColor" opacity="0.06" stroke="none"/>
  </symbol>
</svg>